<?xml version="1.0" encoding="UTF-8" standalone="no"?>
<!-- Created with Inkscape (http://www.inkscape.org/) -->

<svg
   xmlns:dc="http://purl.org/dc/elements/1.1/"
   xmlns:cc="http://creativecommons.org/ns#"
   xmlns:rdf="http://www.w3.org/1999/02/22-rdf-syntax-ns#"
   xmlns:svg="http://www.w3.org/2000/svg"
   xmlns="http://www.w3.org/2000/svg"
   xmlns:sodipodi="http://sodipodi.sourceforge.net/DTD/sodipodi-0.dtd"
   xmlns:inkscape="http://www.inkscape.org/namespaces/inkscape"
   width="744.09448819"
   height="1052.3622047"
   id="svg2"
   version="1.1"
   inkscape:version="0.48.4 r9939"
   sodipodi:docname="Nowy dokument 1">
  <defs
     id="defs4" />
  <sodipodi:namedview
     id="base"
     pagecolor="#ffffff"
     bordercolor="#666666"
     borderopacity="1.0"
     inkscape:pageopacity="0.0"
     inkscape:pageshadow="2"
     inkscape:zoom="0.98994949"
     inkscape:cx="169.9272"
     inkscape:cy="711.25613"
     inkscape:document-units="px"
     inkscape:current-layer="layer5"
     showgrid="false"
     showguides="true"
     inkscape:guide-bbox="true"
     inkscape:window-width="1280"
     inkscape:window-height="961"
     inkscape:window-x="-8"
     inkscape:window-y="-8"
     inkscape:window-maximized="1">
    <sodipodi:guide
       orientation="1,0"
       position="387.14286,660.35714"
       id="guide3880" />
  </sodipodi:namedview>
  <metadata
     id="metadata7">
    <rdf:RDF>
      <cc:Work
         rdf:about="">
        <dc:format>image/svg+xml</dc:format>
        <dc:type
           rdf:resource="http://purl.org/dc/dcmitype/StillImage" />
        <dc:title></dc:title>
      </cc:Work>
    </rdf:RDF>
  </metadata>
  <g
     inkscape:label="Layer 1"
     inkscape:groupmode="layer"
     id="layer1"
     sodipodi:insensitive="true">
    <path
       style="fill:none;stroke:#000000;stroke-width:1px;stroke-linecap:butt;stroke-linejoin:miter;stroke-opacity:1"
       d="m 300,420.93361 c -13.21374,20.47352 -16.66198,58.58548 -8.57143,82.85714 9.1278,27.38339 34.95421,30.43252 60,34.28572 20.20312,3.10817 59.27103,14.00587 80,5.71428 33.86833,-13.54733 66.06397,-107.50248 20,-122.85714 -8.88283,-2.96094 -19.66638,-0.63088 -28.57143,-2.85714 -23.02138,-5.75535 -40.16215,-8.57143 -65.71428,-8.57143 -24.50039,0 -37.98345,-3.89895 -57.14286,11.42857 z"
       id="path2985"
       inkscape:connector-curvature="0" />
    <path
       style="fill:none;stroke:#000000;stroke-width:1px;stroke-linecap:butt;stroke-linejoin:miter;stroke-opacity:1"
       d="m 285.71429,500.93361 c 5.02611,-15.07833 1.6315,-37.95458 5.71428,-54.28571 10.74561,-42.98244 72.88985,-68.80545 108.57143,-85.71429 58.91361,27.7514 65.00735,62.88653 80,122.85714"
       id="path2987"
       inkscape:connector-curvature="0" />
    <path
       style="fill:none;stroke:#000000;stroke-width:1px;stroke-linecap:butt;stroke-linejoin:miter;stroke-opacity:1"
       d="m 294.28571,492.36218 c 9.79005,-29.37014 53.35566,-66.05348 102.85715,-77.14285 51.24881,7.32744 65.77149,45.8859 74.28571,71.42857"
       id="path2989"
       inkscape:connector-curvature="0" />
    <path
       style="fill:none;stroke:#000000;stroke-width:1px;stroke-linecap:butt;stroke-linejoin:miter;stroke-opacity:1"
       d="m 334.28571,389.50504 c 38.38086,10.17862 34.08876,-17.04438 0,0 z"
       id="path2991"
       inkscape:connector-curvature="0" />
    <path
       style="fill:none;stroke:#000000;stroke-width:1px;stroke-linecap:butt;stroke-linejoin:miter;stroke-opacity:1"
       d="m 431.42857,389.50504 11.42857,0"
       id="path2993"
       inkscape:connector-curvature="0" />
    <path
       style="fill:none;stroke:#000000;stroke-width:1px;stroke-linecap:butt;stroke-linejoin:miter;stroke-opacity:1"
       d="m 302.14286,473.79075 c 13.59869,9.90046 10.04528,-22.81186 13.57143,-19.28571 3.3026,3.3026 3.49218,7.30162 8.57142,8.57143 3.41339,-5.79355 6.42858,-11.00302 6.42858,-17.85715 0,-0.2675 -1.32236,7.97876 6.42857,6.42858 8.55225,-1.71045 3.78688,-8.0726 7.14285,-11.42858 1.57331,-1.5733 5.85608,0.5725 7.85715,-1.42857 2.21354,-2.21354 1.4154,-7.83081 2.85714,-10.71428 0.75372,-1.50745 12.66593,6.0967 14.28571,2.85714 0.50476,-1.00951 0.57937,-10.71429 2.14286,-10.71429 4.81287,0 7.57147,3.64285 16.42857,1.42858 2.10688,-0.52672 4.33858,-8.57143 5,-8.57143 0.36965,0 0.93687,3.07972 2.14286,4.28571 1.52975,1.52975 10.0104,-0.35887 12.14286,-0.71428 1.21459,-0.20244 10.64445,-4.35555 10.71428,-4.28572 2.38096,2.38095 -2.38095,11.90476 0,14.28572 1.97484,1.97484 4.92389,-4.36183 6.42857,-2.85715 3.9825,3.9825 1.42679,6.42857 7.85715,6.42857 0.6674,0 -0.80523,8.48049 0,9.28572 2.09734,2.09734 7.50038,-2.14286 8.57143,-2.14286 2.28443,0 -0.66531,16.08367 0.71428,16.42857 2.67462,0.66866 18.78296,-1.6401 13.57143,3.57143 -0.74088,0.74088 -1.62542,6.74916 -0.71429,8.57143 1.12004,2.24006 9.216,-4.35543 10,-3.57143 0.38252,0.38252 -2.40121,5.51671 -2.85714,6.42857 -0.27453,0.54907 -0.54194,6.60092 0,7.14286 1.22567,1.22567 5,-3.16193 5,-1.42857 0,5.78713 -6.1935,5.31645 3.57143,8.57143"
       id="path2995"
       inkscape:connector-curvature="0" />
    <path
       style="fill:none;stroke:#000000;stroke-width:1px;stroke-linecap:butt;stroke-linejoin:miter;stroke-opacity:1"
       d="m 345.71429,449.50504 c -12.80305,6.75139 -11.53977,24.9722 2.85714,28.57143 3.79687,0.94922 8.27417,-0.64478 12.14286,0 2.32016,0.38669 7.36999,1.91572 9.28571,0 16.50672,-16.50673 -11.47166,-28.57143 -20,-28.57143"
       id="path2997"
       inkscape:connector-curvature="0" />
    <path
       style="fill:none;stroke:#000000;stroke-width:1px;stroke-linecap:butt;stroke-linejoin:miter;stroke-opacity:1"
       d="m 420.71429,459.50504 c -3.34072,-0.13424 -6.57827,0.0748 -9.28572,1.42857 -1.60619,0.8031 -4.63795,8.91713 -5.71428,11.42857 -1.03783,2.42159 -4.33549,7.04331 -2.85715,10 2.71628,5.43256 28.06197,5.16982 35,2.85714 7.94037,-2.64678 4.28572,-15.51718 4.28572,-22.14285 0,-1.06501 2.01972,-12.20443 0.71428,-12.85715 -6.78825,-3.39412 -30.97327,-1.7523 -22.14285,9.28572 z"
       id="path2999"
       inkscape:connector-curvature="0" />
    <path
       style="fill:none;stroke:#000000;stroke-width:1px;stroke-linecap:butt;stroke-linejoin:miter;stroke-opacity:1"
       d="m 420,473.79075 c -9.31017,7.39306 5.71429,13.38754 5.71429,0 0,-2.6733 -4.02973,-0.67382 -5.71429,0 z"
       id="path3001"
       inkscape:connector-curvature="0" />
    <path
       style="fill:none;stroke:#000000;stroke-width:1px;stroke-linecap:butt;stroke-linejoin:miter;stroke-opacity:1"
       d="m 354.28572,463.79076 c -15.18771,11.7764 24.33589,9.73436 0,0 z"
       id="path3003"
       inkscape:connector-curvature="0" />
    <path
       style="fill:none;stroke:#000000;stroke-width:1px;stroke-linecap:butt;stroke-linejoin:miter;stroke-opacity:1"
       d="m 381.42857,508.07647 c -4.23017,4.73396 2.14286,5.06456 2.14286,7.85714 0,19.61221 34.56606,-13.9753 -2.14286,-7.85714 z"
       id="path3007"
       inkscape:connector-curvature="0" />
    <path
       style="fill:none;stroke:#000000;stroke-width:1px;stroke-linecap:butt;stroke-linejoin:miter;stroke-opacity:1"
       d="m 285.71429,512.36218 c 3.77115,9.50719 8.80399,25.39314 15.71428,30 8.62493,5.74996 45.33987,0.33987 48.57143,3.57143 2.49468,2.49468 30.11639,14.16932 33.57143,10.71429 0.49434,-0.49434 -1.20569,-4.33135 -1.42857,-5 -0.33228,-0.99684 -0.1518,-5.86608 -0.71429,-6.42858 -1.6613,-1.6613 -28.27724,-2.36055 -33.57143,-4.28571 -12.63255,-4.59366 -38.90511,-32.04771 -42.14285,-32.85714 -2.54638,-0.6366 -7.58392,-1.73301 -9.28572,-4.28572 C 293.2851,499.07555 295,487.36348 295,480.93361"
       id="path3009"
       inkscape:connector-curvature="0" />
    <path
       style="fill:none;stroke:#000000;stroke-width:1px;stroke-linecap:butt;stroke-linejoin:miter;stroke-opacity:1"
       d="m 382.14286,546.6479 c 1.77342,6.247 -3.59055,18.55231 1.42857,23.57142 0.15207,0.15208 11.87337,-4.59794 14.28571,-5 4.63321,-0.7722 9.65251,0.77221 14.28572,0 6.19662,-1.03277 7.5676,-3.94209 12.85714,-5 1.78304,-0.3566 8.11565,1.17007 9.28571,0 2.86502,-2.86501 5.2242,-7.13242 10,-10.71428 8.34036,-6.25527 26.48856,-10.11997 30.71429,-18.57143 3.56851,-7.13702 4.99311,-56.42168 -3.57143,-47.85714 -3.08104,3.08104 -4.15447,11.88036 -6.42857,16.42857 -3.32299,6.64597 -10.31339,9.85602 -15,15.71428 -5.82763,7.28454 -10.53236,16.24665 -17.14286,22.85715 -1.38632,1.38632 -4.11853,3.95135 -5,5.71428 -0.1502,0.30042 0.23943,2.77734 0,2.85715 -11.45605,3.81868 -32.9475,-7.09768 -41.42857,-2.85715 -1.53567,0.76784 -2.60212,2.52043 -4.28571,2.85715 -1.3595,0.2719 -3.87467,-1.0894 -5,-0.71429"
       id="path3011"
       inkscape:connector-curvature="0" />
    <path
       style="fill:none;stroke:#000000;stroke-width:1px;stroke-linecap:butt;stroke-linejoin:miter;stroke-opacity:1"
       d="m 317.85714,548.79075 c 1.93348,11.49181 -7.05725,88.65704 -5,90.71429 4.13618,4.13617 22.13733,3.65018 27.85715,4.28571 13.60315,1.51146 26.97945,5.37205 40.71428,6.42858 9.978,0.76753 19.97934,0.0103 28.57143,-4.28572 7.2018,-3.6009 23.65537,1.02946 31.42857,-2.85714 1.86397,-0.93199 1.53314,-9.29161 2.14286,-10.71429 4.00682,-9.34925 3.41497,-50.31292 -1.42857,-60 C 439.56866,567.21379 435,562.18941 435,555.93361"
       id="path3015"
       inkscape:connector-curvature="0" />
    <path
       style="fill:none;stroke:#000000;stroke-width:1px;stroke-linecap:butt;stroke-linejoin:miter;stroke-opacity:1"
       d="m 446.42857,603.07647 c 5.17156,-6.55659 17.70046,-4.84332 22.85714,-10 1.21003,-1.21002 -3.69208,-10.83495 -4.28571,-11.42857 -0.10195,-0.10195 -0.57139,-5.35704 -0.71429,-5.71429 -7.27857,-18.19643 -6.17891,-30.55941 -31.42857,-22.14286"
       id="path3017"
       inkscape:connector-curvature="0" />
    <path
       style="fill:none;stroke:#000000;stroke-width:1px;stroke-linecap:butt;stroke-linejoin:miter;stroke-opacity:1"
       d="m 309.28571,545.93361 c -8.49722,8.31114 -29.96384,37.89329 -18.57142,49.28571 1.96971,1.96972 28.53008,2.85715 32.85714,2.85715"
       id="path3019"
       inkscape:connector-curvature="0" />
    <path
       style="fill:none;stroke:#000000;stroke-width:1px;stroke-linecap:butt;stroke-linejoin:miter;stroke-opacity:1"
       d="m 296.42857,598.79075 c -9.32629,4.58179 1.35005,14.28572 15,14.28572"
       id="path3021"
       inkscape:connector-curvature="0" />
    <path
       style="fill:none;stroke:#000000;stroke-width:1px;stroke-linecap:butt;stroke-linejoin:miter;stroke-opacity:1"
       d="m 450.71429,613.07647 c 10.19984,-0.0711 23.30498,-5.98073 13.57142,-15.71429"
       id="path3023"
       inkscape:connector-curvature="0" />
    <path
       style="fill:none;stroke:#000000;stroke-width:1px;stroke-linecap:butt;stroke-linejoin:miter;stroke-opacity:1"
       d="m 327.14286,646.6479 c 2.47311,6.69396 -0.21813,59.17665 2.85714,60.71428 3.36019,1.6801 9.98664,0.71429 13.57143,0.71429 3.79002,0 4.53619,-1.03588 7.85714,-2.14286 2.33306,-0.77769 7.84448,1.4349 9.28572,0.71429 2.36363,-1.18182 -0.48949,-32.36766 0.71428,-33.57143 1.14791,-1.14791 12.97556,-0.71429 15,-0.71429 23.87495,0 25,-7.42172 25,19.28572 0,2.05134 -1.25283,11.60431 0,12.85714 0.84311,0.8431 10.37708,1.1657 11.42857,1.42857 3.62306,0.90577 7.78133,2.53791 10,1.42857 0.28329,-0.14164 10,-5.40563 10,-4.28571 0,0.86448 -0.0121,-10.71429 0,-10.71429 1.12046,0 0.71429,-17.2181 0.71429,-20.71428 0,-10.2381 0,-20.47619 0,-30.71429"
       id="path3027"
       inkscape:connector-curvature="0" />
    <path
       style="fill:none;stroke:#000000;stroke-width:1px;stroke-linecap:butt;stroke-linejoin:miter;stroke-opacity:1"
       d="m 402.14286,691.6479 c 10.92119,-3.38618 20.20131,-0.71429 30,-0.71429"
       id="path3029"
       inkscape:connector-curvature="0" />
    <path
       style="fill:none;stroke:#000000;stroke-width:1px;stroke-linecap:butt;stroke-linejoin:miter;stroke-opacity:1"
       d="m 330,693.07647 c 13.33589,-5.35359 20.914,0.78085 31.42857,4.28571"
       id="path3031"
       inkscape:connector-curvature="0" />
    <path
       style="fill:none;stroke:#000000;stroke-width:1px;stroke-linecap:butt;stroke-linejoin:miter;stroke-opacity:1"
       d="m 590,448.07647 c 13.73518,-13.73518 16.85359,-73.39989 58.57143,-78.57143 12.78369,24.04031 32.85714,54.92752 32.85714,82.85714 8.59992,35.08032 -6.51452,50.97213 -14.28571,74.28572 20.27818,9.38962 42.96761,22.96761 51.42857,31.42857 6.65108,10.8037 13.69582,19.65889 17.14286,30 -26.4216,4.11152 -54.31884,0 -80,0 3.78762,12.01597 -0.92062,25.80959 2.85714,37.14286 5.12716,15.38149 16.27692,28.08057 24.28571,41.42857 2.87685,4.79474 0.44539,13.7479 2.85715,18.57143 5.45719,10.91437 29.58833,35.71428 41.42857,35.71428 34.63838,-5.73063 23.75618,-48.0419 32.85714,-57.14286 2.11883,-2.11883 5.71429,14.50842 5.71429,17.14286 0,16.44527 6.82157,35.24957 1.42857,51.42857 -19.72913,-8.81779 -77.93012,-0.78726 -90,-12.85714 -2.97111,-2.97111 -3.19849,-20.6827 -5.71429,-25.71429 -5.19545,-10.39091 -15.49125,-25.58164 -17.14286,-37.14285 -1.68674,-11.80721 2.7534,-28.01277 -4.28571,-38.57143 -4.64736,-6.97105 -13.19853,-8.91282 -18.57143,-14.28572"
       id="path3033"
       inkscape:connector-curvature="0" />
    <path
       style="fill:none;stroke:#000000;stroke-width:1px;stroke-linecap:butt;stroke-linejoin:miter;stroke-opacity:1"
       d="m 627.14286,612.36218 c 2.02005,6.41137 2.27155,14.8713 -2.85715,20 -6.35435,6.35436 -13.76218,2.40462 -24.28571,-2.85714 -4.38782,-2.19391 -20.4612,-7.60406 -24.28571,-11.42857 -2.35437,-2.35437 14.09601,-82.4274 1.42857,-101.42857"
       id="path3035"
       inkscape:connector-curvature="0" />
    <path
       style="fill:none;stroke:#000000;stroke-width:1px;stroke-linecap:butt;stroke-linejoin:miter;stroke-opacity:1"
       d="m 605.71429,546.6479 c -0.95238,1.90476 -0.95238,6.66666 -2.85715,5.71428 -1.90476,-0.95238 2.85715,-3.58469 2.85715,-5.71428 0,-14.5234 -3.38547,-25.71429 15.71428,-25.71429 3.78642,0 9.35669,-1.28663 11.42857,2.85714 2.33054,4.66107 11.30836,8.331 12.85715,11.42858 2.88666,5.77332 -1.58873,53.01729 -4.28572,55.71428 -2.682,2.682 -19.62686,-2.21108 -22.85714,-2.85714 -2.25347,-0.4507 -19.9601,0.0399 -21.42857,-1.42857 -3.38285,-3.38285 6.35813,-10.50297 7.14285,-12.85715 2.68008,-8.04021 3.15419,-18.51477 1.42858,-27.14285 z"
       id="path3037"
       inkscape:connector-curvature="0" />
    <path
       style="fill:none;stroke:#000000;stroke-width:1px;stroke-linecap:butt;stroke-linejoin:miter;stroke-opacity:1"
       d="m 610,585.21933 c -16.32709,36.20713 39.44903,28.02045 20,8.57142"
       id="path3039"
       inkscape:connector-curvature="0" />
    <path
       style="fill:none;stroke:#000000;stroke-width:1px;stroke-linecap:butt;stroke-linejoin:miter;stroke-opacity:1"
       d="m 620,633.79075 c 10.88405,-1.98153 21.75742,-1.06199 31.42857,-4.28571"
       id="path3041"
       inkscape:connector-curvature="0" />
    <path
       style="fill:none;stroke:#000000;stroke-width:1px;stroke-linecap:butt;stroke-linejoin:miter;stroke-opacity:1"
       d="m 655.71429,426.6479 c 11.65657,-8.54301 0,-18.18195 0,-5.71429 0,1.90476 -1.90477,5.71429 0,5.71429 6.89835,0 0.44857,-11.51143 0,-12.85715"
       id="path3043"
       inkscape:connector-curvature="0" />
    <path
       style="fill:none;stroke:#000000;stroke-width:1px;stroke-linecap:butt;stroke-linejoin:miter;stroke-opacity:1"
       d="m 647.14286,378.07647 c -5.07231,21.49076 -10.64023,36.99473 -20,55.71428 -5.28978,10.57955 -1.56579,23.13157 -5.71429,31.42858 -2.46482,4.92964 1.75707,13.30022 0,18.57142 -2.16273,6.4882 -6.92891,7.53623 -8.57143,10 -1.4267,2.14005 -8.07081,26.56898 -8.57143,28.57143"
       id="path3045"
       inkscape:connector-curvature="0" />
    <path
       style="fill:none;stroke:#000000;stroke-width:1px;stroke-linecap:butt;stroke-linejoin:miter;stroke-opacity:1"
       d="m 600,429.50504 c 3.07263,-5.97784 24.87532,-33.69611 30,-28.57143 3.37137,3.37137 -1.52027,41.70367 -2.85714,45.71429"
       id="path3047"
       inkscape:connector-curvature="0" />
    <path
       style="fill:none;stroke:#000000;stroke-width:1px;stroke-linecap:butt;stroke-linejoin:miter;stroke-opacity:1"
       d="m 595.71429,448.07647 c 0.34751,-4.69326 7.77203,3.65654 10,1.42857 2.05838,-2.05839 2.40021,-28.57143 4.28571,-28.57143 2.95392,0 2.66625,12.00125 7.14286,-1.42857 0.1411,-0.4233 -0.10266,-10 0,-10 17.18076,0 6.09874,6.37393 -1.42857,21.42857 -3.20025,6.40049 12.85714,-1.51465 12.85714,17.14286 0,12.13161 -7.24362,11.52934 -14.28572,18.57143 -1.91295,1.91296 2.85715,4.37069 2.85715,5.71428 0,6.19048 0,12.38095 0,18.57143"
       id="path3049"
       inkscape:connector-curvature="0" />
    <path
       style="fill:none;stroke:#000000;stroke-width:1px;stroke-linecap:butt;stroke-linejoin:miter;stroke-opacity:1"
       d="m 617.14286,426.6479 c -14.48483,6.77999 -45.05548,70.2196 -24.28572,77.14285"
       id="path3051"
       inkscape:connector-curvature="0" />
    <path
       style="fill:none;stroke:#000000;stroke-width:1px;stroke-linecap:butt;stroke-linejoin:miter;stroke-opacity:1"
       d="m 585.71429,515.21933 c 7.17617,4.16917 13.63165,7.87721 20,10"
       id="path3053"
       inkscape:connector-curvature="0" />
    <path
       style="fill:none;stroke:#000000;stroke-width:1px;stroke-linecap:butt;stroke-linejoin:miter;stroke-opacity:1"
       d="m 592.85714,525.21933 c 1.16251,12.86137 -9.98095,21.35238 -12.85714,32.85714 -2.25568,9.0227 2.54746,24.90508 -1.42857,32.85714 -21.74477,43.48955 27.34499,41.42857 60,41.42857"
       id="path3055"
       inkscape:connector-curvature="0" />
    <path
       style="fill:none;stroke:#000000;stroke-width:1px;stroke-linecap:butt;stroke-linejoin:miter;stroke-opacity:1"
       d="m 605.71429,643.79075 c -3.88612,19.22073 5.18426,52.48862 0,62.85715 -0.67852,1.35703 -5.7134,2.85803 -2.85715,5.71428 3.36718,3.36718 9.52381,0 14.28572,0 7.40841,0 15.56442,0.14987 20,-4.28571 10.29738,-10.29738 6.85619,-65.14572 2.85714,-77.14286"
       id="path3057"
       inkscape:connector-curvature="0" />
    <path
       style="fill:none;stroke:#000000;stroke-width:1px;stroke-linecap:butt;stroke-linejoin:miter;stroke-opacity:1"
       d="m 604.28571,692.36218 c -39.87695,7.65871 0.65981,25.97054 22.85715,18.57143"
       id="path3059"
       inkscape:connector-curvature="0" />
  </g>
  <g
     inkscape:groupmode="layer"
     id="layer2"
     inkscape:label="face"
     style="display:inline"
     sodipodi:insensitive="true">
    <path
       style="color:#000000;fill:#ffccaa;fill-opacity:1;fill-rule:nonzero;stroke:#000000;stroke-width:1;stroke-miterlimit:4;stroke-dasharray:none;marker:none;visibility:visible;display:inline;overflow:visible;enable-background:accumulate"
       d="m 382.87892,546.09999 c -49.25787,2.01648 -80.48476,-12.50129 -74.14541,-55.13741 6.33936,-42.63611 25.24444,-72.01005 76.45391,-71.02603 51.20948,0.98403 61.238,26.72926 72.11447,67.82574 11.57016,43.71758 -25.16511,56.32122 -74.42297,58.3377 z"
       id="path3062"
       inkscape:connector-curvature="0"
       sodipodi:nodetypes="szzss" />
    <g
       id="g3102">
      <path
         sodipodi:nodetypes="sssss"
         inkscape:connector-curvature="0"
         id="path3065"
         d="m 389.46032,527.90289 c -7.24476,0.33702 -20.28099,-7.29819 -18.72803,-14.38256 1.62727,-7.42333 11.78066,-1.51602 19.02542,-1.85305 7.21982,-0.33586 15.96077,-6.47172 17.83361,0.86849 1.80094,7.05844 -10.88624,15.03009 -18.131,15.36712 z"
         style="color:#000000;fill:#000000;fill-opacity:1;fill-rule:nonzero;stroke:none;stroke-width:5.36637878;marker:none;visibility:visible;display:inline;overflow:visible;enable-background:accumulate" />
      <path
         sodipodi:nodetypes="cccsccc"
         inkscape:connector-curvature="0"
         id="path3083"
         d="m 400.66205,520.40102 c -7.44095,3.41741 -13.70305,4.23303 -23.19873,0.62432 l -0.0278,0.13278 c 4.20147,5.04171 6.90804,5.45664 11.96621,5.23196 4.78839,-0.21269 5.88734,-0.30945 11.26034,-5.67039 l 0,-0.31867 z"
         style="color:#000000;fill:#ffffff;fill-opacity:1;fill-rule:nonzero;stroke:none;stroke-width:5.36637878;marker:none;visibility:visible;display:inline;overflow:visible;enable-background:accumulate" />
    </g>
  </g>
  <g
     inkscape:groupmode="layer"
     id="layer3"
     inkscape:label="eyes"
     style="display:inline"
     sodipodi:insensitive="true">
    <g
       id="g3098">
      <path
         sodipodi:open="true"
         sodipodi:end="12.515014"
         sodipodi:start="6.2366992"
         d="m 365.6572,462.16364 a 16.667517,16.667517 0 1 1 -0.004,-0.0811"
         sodipodi:ry="16.667517"
         sodipodi:rx="16.667517"
         sodipodi:cy="462.93817"
         sodipodi:cx="349.00769"
         id="path3068"
         style="color:#000000;fill:#000000;fill-opacity:1;fill-rule:nonzero;stroke:none;stroke-width:5.36637878;marker:none;visibility:visible;display:inline;overflow:visible;enable-background:accumulate"
         sodipodi:type="arc" />
      <path
         sodipodi:nodetypes="sssss"
         inkscape:connector-curvature="0"
         id="path3074"
         d="m 340.24597,463.0672 c -4.45831,0.2074 -6.22034,-1.67752 -6.42774,-6.13583 -0.2074,-4.45831 3.28291,-8.12755 7.5133,-9.55 3.89198,-1.30866 9.33058,-0.9172 9.54903,3.5449 0.2192,4.47745 -6.17628,11.93353 -10.63459,12.14093 z"
         style="color:#000000;fill:#ffffff;fill-opacity:1;fill-rule:nonzero;stroke:none;stroke-width:5.36637878;marker:none;visibility:visible;display:inline;overflow:visible;enable-background:accumulate"
         transform="matrix(0.68750626,0,0,0.68750626,107.01089,142.29779)" />
    </g>
    <g
       id="g3094">
      <path
         transform="translate(68,0)"
         sodipodi:type="arc"
         style="color:#000000;fill:#000000;fill-opacity:1;fill-rule:nonzero;stroke:none;stroke-width:5.36637878;marker:none;visibility:visible;display:inline;overflow:visible;enable-background:accumulate"
         id="path3072"
         sodipodi:cx="349.00769"
         sodipodi:cy="462.93817"
         sodipodi:rx="16.667517"
         sodipodi:ry="16.667517"
         d="m 365.6572,462.16364 a 16.667517,16.667517 0 1 1 -0.004,-0.0811"
         sodipodi:start="6.2366992"
         sodipodi:end="12.515014"
         sodipodi:open="true" />
      <path
         sodipodi:nodetypes="sssss"
         inkscape:connector-curvature="0"
         id="path3076"
         d="m 345.28475,462.85011 c -4.45831,0.2074 -9.47437,-3.69319 -9.68177,-8.1515 -0.2074,-4.45831 0.24891,-9.9328 4.64503,-9.1623 4.37804,0.76733 10.63082,4.70102 10.84964,9.1708 0.21882,4.46978 -1.35459,7.9356 -5.8129,8.143 z"
         style="color:#000000;fill:#ffffff;fill-opacity:1;fill-rule:nonzero;stroke:none;stroke-width:5.36637878;marker:none;visibility:visible;display:inline;overflow:visible;enable-background:accumulate"
         transform="matrix(0.68750626,0,0,0.68750626,188.32817,143.81302)" />
    </g>
  </g>
  <g
     inkscape:groupmode="layer"
     id="layer4"
     inkscape:label="hair"
     sodipodi:insensitive="true">
    <path
       style="fill:#ffe680;stroke:#000000;stroke-width:1px;stroke-linecap:butt;stroke-linejoin:miter;stroke-opacity:1"
       d="m 362.82333,421.25669 c 2.00765,6.00646 9.44046,6.93646 11.8925,8.94344 1.74741,-10.36526 2.62346,-8.46249 6.46882,-10.39739 -0.37361,6.37617 5.62214,8.0664 10.75454,10.30547 10.30216,-5.786 11.40841,-6.07665 12.50961,-8.64231 1.84442,4.00851 3.54047,8.2841 7.69344,8.13724 -2.1224,-3.56499 -3.59551,-6.69711 1.31128,-5.57597 7.58176,3.71061 8.16211,7.42121 9.29532,11.13181 1.59685,-3.32127 3.74926,-3.57111 7.72408,-2.61204 -1.58643,5.77436 -0.76834,10.89294 2.88252,15.23894 3.15581,-7.85571 6.02015,-0.55235 10.95849,3.1784 6.24335,12.18388 -0.31035,15.56978 -0.85696,23.08557 3.03046,-0.60515 6.06091,0.39115 9.09137,-6.06092 -0.0507,7.99697 0.99389,16.49177 -4.04061,22.22336 4.20897,-3.39038 8.41794,-4.83581 12.62691,-2.52538 l 3.53553,-32.32488 -18.68782,-43.94164 -47.98225,-11.61675 -55.55839,3.03046 -36.87056,30.30457 -5.05077,41.92133 3.59681,10.42803 c 3.19882,-0.39201 5.3262,-2.80567 8.52502,0.68365 4.5425,2.15388 4.02022,5.05378 5.05077,7.07107 4.1272,-4.63425 2.41417,-10.64267 -1.51523,-17.17259 2.07824,-0.43887 4.25536,-0.76472 9.59645,2.52538 -1.55313,-5.46534 0.57586,-11.54437 -6.06092,-16.16244 2.14837,-2.80958 4.41097,-4.78148 7.96393,2.70921 5.49202,-4.20146 0.83376,-10.5281 -1.39794,-13.82089 2.68937,-1.52973 5.21358,-4.71107 8.34645,-1.80584 1.65271,-3.77538 -1.36512,-7.55077 -3.29568,-11.32615 4.24739,3.05304 9.48132,3.80417 15.15228,3.53554 -3.13842,-0.31935 -4.25236,-5.69989 -4.54568,-13.13198 6.38593,9.38126 9.41041,5.31676 13.63706,6.06091 -2.55949,-3.19654 -4.4697,-6.43637 0,-10.10152 3.57289,0.43029 3.69878,3.32272 4.04061,6.06091 4.5796,-1.20436 3.7017,-5.38554 3.20902,-9.3566 z"
       id="path3107"
       inkscape:connector-curvature="0"
       sodipodi:nodetypes="ccccccccccccccccccccccccccccccccccccc" />
  </g>
  <g
     inkscape:groupmode="layer"
     id="layer5"
     inkscape:label="hoodie">
    <path
       style="fill:#afdde9;stroke:#000000;stroke-width:1px;stroke-linecap:butt;stroke-linejoin:miter;stroke-opacity:1"
       d="m 387.14286,323.18868 c -9.90258,0.71135 -55.1045,28.57839 -74.50065,68.53374 -19.27064,39.69681 -20.61125,89.49243 -19.05983,119.49386 1.16796,22.58635 32.69689,36.06963 42.79842,38.59501 10.10152,2.52538 43.94163,5.05076 43.94163,5.05076 0,0 15.65737,-5.05076 2.52538,-8.58629 -13.13198,-3.53554 -78.79189,-6.56599 -80.30712,-30.80966 -1.51523,-24.24366 26.97825,-83.37783 34.28391,-93.72446 6.30236,-8.92569 40.61196,-18.26074 50.31826,-18.27991 9.7063,-0.0192 58.039,14.21759 67.84302,33.92677 9.80402,19.70917 12.71475,38.68166 6.65383,66.96593 -6.06091,28.28427 -50.34482,46.19653 -62.97173,41.65085 -12.6269,-4.54569 -9.51968,7.57614 -2.95369,8.08122 6.56599,0.50507 37.13608,1.78571 45.72237,0.77555 8.5863,-1.01015 34.3539,-47.13489 35.13998,-68.20016 0.40427,-10.83381 4.25573,-47.81155 -14.17468,-75.18127 -14.91063,-34.98234 -65.73841,-87.61526 -75.2591,-88.29194 z"
       id="path3878"
       inkscape:connector-curvature="0"
       sodipodi:nodetypes="cssscssszzssssscc" />
  </g>
</svg>
